<svg width="48" height="43" viewBox="0 0 48 43" fill="none" xmlns="http://www.w3.org/2000/svg">
<path d="M1.22656 19.0813C1.22656 13.2905 6.66399 8.6001 13.3772 8.6001H14.1873C15.9795 8.6001 17.4275 9.84911 17.4275 11.3951C17.4275 12.9411 15.9795 14.1901 14.1873 14.1901H13.3772C10.2484 14.1901 7.70692 16.3824 7.70692 19.0813V19.7801H14.1873C17.7616 19.7801 20.6676 22.2869 20.6676 25.3701V30.9601C20.6676 34.0433 17.7616 36.5501 14.1873 36.5501H7.70692C4.1326 36.5501 1.22656 34.0433 1.22656 30.9601V28.1651V25.3701V19.0813ZM27.148 19.0813C27.148 13.2905 32.5854 8.6001 39.2987 8.6001H40.1087C41.9009 8.6001 43.3489 9.84911 43.3489 11.3951C43.3489 12.9411 41.9009 14.1901 40.1087 14.1901H39.2987C36.1699 14.1901 33.6283 16.3824 33.6283 19.0813V19.7801H40.1087C43.683 19.7801 46.5891 22.2869 46.5891 25.3701V30.9601C46.5891 34.0433 43.683 36.5501 40.1087 36.5501H33.6283C30.054 36.5501 27.148 34.0433 27.148 30.9601V28.1651V25.3701V19.0813Z" fill="#ECEEF1"/>
</svg>
