<svg width="172" height="33" viewBox="0 0 172 33" fill="none" xmlns="http://www.w3.org/2000/svg">
<path d="M48.8202 30.5155C47.7224 30.5155 46.606 30.4168 45.4711 30.2194C44.3486 30.0344 43.3 29.7939 42.3255 29.4978C41.3633 29.2017 40.5862 28.9057 39.994 28.6096L40.3456 24.5573C41.1968 25.0384 42.0726 25.4517 42.9731 25.7971C43.886 26.1301 44.805 26.3954 45.7301 26.5927C46.6677 26.7778 47.599 26.8703 48.5242 26.8703C49.5357 26.8703 50.4362 26.7408 51.2257 26.4817C52.0152 26.2103 52.632 25.7971 53.0761 25.242C53.5325 24.6745 53.7607 23.9467 53.7607 23.0586C53.7607 22.2074 53.5078 21.5043 53.0021 20.9491C52.5086 20.394 51.787 19.9129 50.8371 19.5059C49.8873 19.0865 48.7524 18.6794 47.4325 18.2846C45.7795 17.7789 44.3671 17.2176 43.1952 16.6008C42.0233 15.9717 41.1289 15.1884 40.5121 14.2509C39.9077 13.3133 39.6055 12.1044 39.6055 10.6242C39.6055 9.19321 39.9324 7.91647 40.5862 6.79392C41.2523 5.67137 42.2391 4.79553 43.5467 4.16641C44.8667 3.52495 46.5135 3.20422 48.4872 3.20422C49.2767 3.20422 50.0662 3.25973 50.8556 3.37075C51.6575 3.48178 52.4223 3.62981 53.1501 3.81484C53.8902 3.98754 54.5625 4.19108 55.167 4.42546C55.7714 4.65984 56.2957 4.90038 56.7398 5.1471L56.3512 9.18088C55.5987 8.67511 54.7969 8.2557 53.9457 7.92263C53.1069 7.57723 52.2742 7.31818 51.4478 7.14548C50.6336 6.96045 49.8749 6.86793 49.1718 6.86793C48.2713 6.86793 47.4448 6.99745 46.6923 7.25651C45.9399 7.51555 45.3354 7.9103 44.879 8.44073C44.4226 8.95883 44.1944 9.62496 44.1944 10.4391C44.1944 11.1793 44.3917 11.8022 44.7865 12.308C45.1812 12.8137 45.8042 13.264 46.6553 13.6587C47.5065 14.0535 48.6044 14.4606 49.949 14.88C52.0584 15.5461 53.7237 16.2246 54.9449 16.9154C56.1662 17.5938 57.0297 18.3957 57.5354 19.3208C58.0535 20.246 58.3126 21.4056 58.3126 22.7995C58.3126 24.2921 57.9795 25.6182 57.3134 26.7778C56.6596 27.9373 55.6296 28.8502 54.2233 29.5163C52.8294 30.1824 51.0283 30.5155 48.8202 30.5155Z" fill="#313131"/>
<path d="M73.1819 30.534C71.0725 30.534 69.1728 30.2009 67.4828 29.5348C65.7928 28.8563 64.3557 27.9065 63.1715 26.6853C61.9873 25.464 61.0806 24.0207 60.4515 22.3554C59.8224 20.6901 59.5078 18.8644 59.5078 16.8784C59.5078 14.2262 60.0506 11.8701 61.1361 9.81C62.2216 7.74993 63.7513 6.13396 65.725 4.96206C67.6987 3.79017 70.024 3.20422 72.7008 3.20422C73.5643 3.20422 74.4093 3.2659 75.2358 3.38926C76.0623 3.50028 76.8456 3.66065 77.5858 3.87035C78.3383 4.06772 79.0352 4.28977 79.6767 4.53648C80.3181 4.77086 80.8794 5.02374 81.3605 5.29513L80.9904 9.40292C80.0406 8.82314 79.1154 8.35438 78.2149 7.99665C77.3144 7.63891 76.4386 7.37986 75.5874 7.2195C74.7362 7.0468 73.9097 6.96045 73.1079 6.96045C71.3562 6.96045 69.7958 7.36136 68.4265 8.16318C67.0572 8.95267 65.984 10.0876 65.2069 11.5678C64.4297 13.0481 64.0412 14.8183 64.0412 16.8784C64.0412 18.2476 64.2385 19.5367 64.6333 20.7456C65.0404 21.9422 65.6448 23.003 66.4466 23.9282C67.2484 24.8411 68.2538 25.5627 69.4627 26.0931C70.6716 26.6112 72.0717 26.8703 73.663 26.8703C74.2798 26.8703 74.8904 26.8333 75.4949 26.7593C76.1117 26.6729 76.7223 26.5434 77.3267 26.3707C77.9435 26.198 78.548 25.9636 79.1401 25.6676C79.7445 25.3715 80.3366 25.0199 80.9164 24.6129L81.2125 28.6836C80.682 28.992 80.1023 29.2696 79.4731 29.5163C78.844 29.7507 78.1841 29.9419 77.4933 30.0899C76.8025 30.2379 76.0932 30.349 75.3653 30.423C74.6375 30.497 73.9097 30.534 73.1819 30.534Z" fill="#313131"/>
<path d="M84.4162 30.0899C84.4162 28.6343 84.4162 27.2342 84.4162 25.8896C84.4162 24.545 84.4162 23.0524 84.4162 21.4117V12.5115C84.4162 10.8585 84.4162 9.34124 84.4162 7.95964C84.4162 6.57804 84.4162 5.15943 84.4162 3.70382C85.1563 3.70382 86.0198 3.70382 87.0067 3.70382C87.9936 3.70382 89.0544 3.70382 90.1893 3.70382C91.3365 3.70382 92.5331 3.70382 93.779 3.70382C95.8391 3.70382 97.5661 3.94437 98.96 4.42546C100.354 4.89422 101.402 5.6652 102.106 6.7384C102.809 7.79928 103.16 9.23022 103.16 11.0312C103.16 12.4992 102.87 13.8376 102.291 15.0465C101.723 16.2554 100.786 17.2299 99.4781 17.9701C98.1705 18.6979 96.4127 19.068 94.2046 19.0803L95.7404 17.2484L99.7001 22.4849C100.317 23.2991 100.971 24.1626 101.662 25.0754C102.352 25.9883 103.025 26.8826 103.678 27.7585C104.345 28.6343 104.93 29.4114 105.436 30.0899H100.422C99.6323 29.0044 98.8675 27.962 98.1273 26.9628C97.3995 25.9513 96.6841 24.9644 95.9809 24.0022L91.3735 17.674L94.001 19.9315H87.9134V16.3973H92.7058C94.0504 16.3973 95.1606 16.2431 96.0364 15.9347C96.9246 15.614 97.5846 15.0959 98.0163 14.3804C98.4604 13.6649 98.6824 12.7089 98.6824 11.5123C98.6824 10.5378 98.5283 9.76682 98.2199 9.19938C97.9115 8.63194 97.5044 8.20636 96.9986 7.92263C96.5052 7.63891 95.9624 7.45388 95.3703 7.36753C94.7782 7.28118 94.1984 7.238 93.631 7.238H85.6559L88.672 4.36995C88.672 5.88724 88.672 7.33052 88.672 8.69978C88.672 10.069 88.672 11.5617 88.672 13.1776V21.4117C88.672 23.0524 88.672 24.545 88.672 25.8896C88.672 27.2342 88.672 28.6343 88.672 30.0899H84.4162Z" fill="#313131"/>
<path d="M119.116 30.534C116.822 30.534 114.823 30.1701 113.121 29.4423C111.431 28.7145 110.025 27.7153 108.902 26.4447C107.792 25.1741 106.959 23.7185 106.404 22.0779C105.849 20.4372 105.572 18.704 105.572 16.8784C105.572 14.3249 106.083 12.0181 107.107 9.95803C108.144 7.88563 109.655 6.24498 111.641 5.03608C113.639 3.81484 116.088 3.20422 118.987 3.20422C121.182 3.20422 123.113 3.55579 124.778 4.25893C126.456 4.96206 127.856 5.94275 128.979 7.20099C130.113 8.4469 130.965 9.89635 131.532 11.5493C132.1 13.2023 132.383 14.9787 132.383 16.8784C132.383 19.4812 131.865 21.8126 130.829 23.8727C129.793 25.9328 128.282 27.5611 126.296 28.7577C124.322 29.9419 121.929 30.534 119.116 30.534ZM119.024 26.8703C120.541 26.8703 121.855 26.5989 122.965 26.0561C124.075 25.5134 124.994 24.7732 125.722 23.8357C126.45 22.8982 126.986 21.8312 127.332 20.6346C127.689 19.438 127.868 18.1859 127.868 16.8784C127.868 15.4721 127.677 14.1645 127.295 12.9556C126.912 11.7467 126.345 10.6858 125.592 9.77299C124.852 8.86015 123.933 8.15084 122.835 7.64508C121.738 7.12698 120.467 6.86793 119.024 6.86793C117.531 6.86793 116.23 7.13315 115.119 7.66358C114.009 8.19402 113.078 8.92799 112.325 9.86551C111.585 10.803 111.03 11.8701 110.66 13.0666C110.29 14.2632 110.105 15.5338 110.105 16.8784C110.105 18.2106 110.284 19.475 110.642 20.6716C110.999 21.8682 111.542 22.9352 112.27 23.8727C113.01 24.7979 113.941 25.5319 115.064 26.0746C116.186 26.6051 117.506 26.8703 119.024 26.8703Z" fill="#313131"/>
<path d="M135.377 30.0899C135.377 28.6343 135.377 27.2342 135.377 25.8896C135.377 24.545 135.377 23.0524 135.377 21.4117V12.53C135.377 10.8524 135.377 9.32891 135.377 7.95964C135.377 6.59038 135.377 5.17177 135.377 3.70382H139.726C139.726 5.17177 139.726 6.59038 139.726 7.95964C139.726 9.32891 139.726 10.8524 139.726 12.53V20.7271C139.726 22.3678 139.726 23.8665 139.726 25.2235C139.726 26.5681 139.726 27.962 139.726 29.4053L138.153 26.2597H143.112C144.469 26.2597 145.665 26.2597 146.702 26.2597C147.75 26.2597 148.718 26.2597 149.607 26.2597C150.495 26.2597 151.408 26.2597 152.345 26.2597V30.0899H135.377Z" fill="#313131"/>
<path d="M154.813 30.0899C154.813 28.6343 154.813 27.2342 154.813 25.8896C154.813 24.545 154.813 23.0524 154.813 21.4117V12.53C154.813 10.8524 154.813 9.32891 154.813 7.95964C154.813 6.59038 154.813 5.17177 154.813 3.70382H159.162C159.162 5.17177 159.162 6.59038 159.162 7.95964C159.162 9.32891 159.162 10.8524 159.162 12.53V20.7271C159.162 22.3678 159.162 23.8665 159.162 25.2235C159.162 26.5681 159.162 27.962 159.162 29.4053L157.589 26.2597H162.548C163.905 26.2597 165.101 26.2597 166.137 26.2597C167.186 26.2597 168.154 26.2597 169.043 26.2597C169.931 26.2597 170.844 26.2597 171.781 26.2597V30.0899H154.813Z" fill="#313131"/>
<path fill-rule="evenodd" clip-rule="evenodd" d="M6.78947 0.94104C3.03975 0.94104 0 3.98079 0 7.73051V26.1516C0 29.9013 3.03975 32.941 6.78947 32.941H25.2105C28.9602 32.941 32 29.9013 32 26.1516V7.73051C32 3.98079 28.9602 0.94104 25.2105 0.94104H6.78947ZM26.9031 27.0235C29.3063 24.6203 26.3899 17.8074 20.389 11.8066C14.3881 5.80568 7.57525 2.88921 5.17202 5.29244C2.7688 7.69567 5.68527 14.5085 11.6861 20.5094C17.687 26.5103 24.4999 29.4268 26.9031 27.0235Z" fill="#313131"/>
</svg>
